<?xml version="1.0" encoding="UTF-8" standalone="no"?>
<svg
   xmlns:dc="http://purl.org/dc/elements/1.1/"
   xmlns:cc="http://creativecommons.org/ns#"
   xmlns:rdf="http://www.w3.org/1999/02/22-rdf-syntax-ns#"
   xmlns:svg="http://www.w3.org/2000/svg"
   xmlns="http://www.w3.org/2000/svg"
   xmlns:xlink="http://www.w3.org/1999/xlink"
   xml:space="preserve"
   enable-background="new 0 0 841.89 595.28"
   viewBox="0 0 280.5 149.99999"
   height="150"
   width="280.5"
   y="0px"
   x="0px"
   id="Layer_1"
   version="1.1"><metadata
     id="metadata101"><rdf:RDF><cc:Work
         rdf:about=""><dc:format>image/svg+xml</dc:format><dc:type
           rdf:resource="http://purl.org/dc/dcmitype/StillImage" /><dc:title></dc:title></cc:Work></rdf:RDF></metadata><defs
     id="defs99"><defs
       id="defs9"><rect
         y="0"
         x="0"
         id="SVGID_1_"
         width="841.89001"
         height="595.28003" /></defs><clipPath
       id="SVGID_2_"><use
         height="100%"
         width="100%"
         y="0"
         x="0"
         style="overflow:visible"
         xlink:href="#SVGID_1_"
         overflow="visible"
         id="use11" /></clipPath></defs><polygon
     style="fill:#ff8000"
     transform="translate(-280.157,-81.150999)"
     id="polygon4"
     points="313.977,231.151 313.977,104.704 560.563,104.704 560.563,177.615 462.145,177.615 462.145,231.151 " /><path
     style="fill:#453760"
     id="path6"
     d="M 152.217,131.259 H 0 V 0.7650007 H 250.636 V 77.725001 H 152.217 Z M 4.049,127.21 H 148.167 V 73.676001 h 98.419 V 4.8140007 H 4.049 Z" /><g
     transform="translate(-280.157,-81.150999)"
     id="g1004"><path
       style="fill:#453760"
       id="path14"
       d="m 299.289,179.625 c 0,-2.022 0.36,-3.92 1.08,-5.694 0.719,-1.772 1.722,-3.318 3.007,-4.642 1.285,-1.325 2.833,-2.364 4.644,-3.124 1.811,-0.761 3.805,-1.141 5.985,-1.141 2.18,0 4.167,0.38 5.958,1.141 1.791,0.76 3.329,1.799 4.614,3.124 1.285,1.324 2.286,2.87 3.007,4.642 0.721,1.774 1.08,3.672 1.08,5.694 0,2.027 -0.359,3.925 -1.08,5.696 -0.721,1.771 -1.722,3.318 -3.007,4.643 -1.285,1.324 -2.823,2.375 -4.614,3.152 -1.791,0.78 -3.778,1.169 -5.958,1.169 -2.18,0 -4.174,-0.389 -5.985,-1.169 -1.811,-0.777 -3.359,-1.828 -4.644,-3.152 -1.285,-1.325 -2.288,-2.872 -3.007,-4.643 -0.72,-1.77 -1.08,-3.668 -1.08,-5.696 m 14.716,7.361 c 1.052,0 1.987,-0.206 2.804,-0.615 0.818,-0.408 1.508,-0.963 2.074,-1.663 0.562,-0.701 0.982,-1.49 1.255,-2.364 0.272,-0.878 0.409,-1.784 0.409,-2.718 0,-0.932 -0.137,-1.838 -0.409,-2.716 -0.273,-0.875 -0.693,-1.654 -1.255,-2.335 -0.566,-0.681 -1.256,-1.226 -2.074,-1.635 -0.817,-0.409 -1.752,-0.615 -2.804,-0.615 -1.05,0 -1.995,0.206 -2.833,0.615 -0.836,0.409 -1.527,0.954 -2.072,1.635 -0.546,0.681 -0.963,1.46 -1.256,2.335 -0.292,0.878 -0.437,1.784 -0.437,2.716 0,0.934 0.145,1.84 0.437,2.718 0.293,0.874 0.71,1.663 1.256,2.364 0.545,0.7 1.236,1.255 2.072,1.663 0.838,0.409 1.783,0.615 2.833,0.615"
       clip-path="url(#SVGID_2_)" /><path
       style="fill:#453760"
       id="path16"
       d="m 339.469,154.397 h 8.994 v 7.535 h -8.994 z m 0.291,11.562 h 8.411 v 27.392 h -8.411 z"
       clip-path="url(#SVGID_2_)" /><path
       style="fill:#453760"
       id="path18"
       d="m 362.479,172.56 h -4.322 v -6.6 h 4.322 v -8.292 h 8.409 v 8.292 h 7.068 v 6.6 h -7.068 v 10.805 c 0,1.324 0.263,2.347 0.789,3.067 0.526,0.719 1.353,1.08 2.483,1.08 0.855,0 1.595,-0.146 2.219,-0.437 0.621,-0.295 1.206,-0.634 1.752,-1.024 l 3.388,5.14 c -2.649,2.104 -5.529,3.153 -8.644,3.153 -1.947,0 -3.584,-0.283 -4.906,-0.847 -1.325,-0.563 -2.394,-1.343 -3.212,-2.335 -0.817,-0.995 -1.402,-2.189 -1.752,-3.593 -0.35,-1.4 -0.526,-2.956 -0.526,-4.67 z"
       clip-path="url(#SVGID_2_)" /><path
       style="fill:#453760"
       id="path20"
       d="m 388.119,179.625 c 0,-2.022 0.36,-3.92 1.08,-5.694 0.719,-1.772 1.722,-3.318 3.007,-4.642 1.285,-1.325 2.833,-2.364 4.644,-3.124 1.811,-0.761 3.805,-1.141 5.985,-1.141 2.18,0 4.167,0.38 5.958,1.141 1.791,0.76 3.329,1.799 4.614,3.124 1.284,1.324 2.286,2.87 3.007,4.642 0.72,1.774 1.08,3.672 1.08,5.694 0,2.027 -0.36,3.925 -1.08,5.696 -0.721,1.771 -1.723,3.318 -3.007,4.643 -1.285,1.324 -2.823,2.375 -4.614,3.152 -1.791,0.78 -3.778,1.169 -5.958,1.169 -2.18,0 -4.174,-0.389 -5.985,-1.169 -1.811,-0.777 -3.359,-1.828 -4.644,-3.152 -1.285,-1.325 -2.288,-2.872 -3.007,-4.643 -0.72,-1.77 -1.08,-3.668 -1.08,-5.696 m 14.715,7.361 c 1.052,0 1.987,-0.206 2.804,-0.615 0.818,-0.408 1.508,-0.963 2.074,-1.663 0.562,-0.701 0.982,-1.49 1.255,-2.364 0.272,-0.878 0.409,-1.784 0.409,-2.718 0,-0.932 -0.137,-1.838 -0.409,-2.716 -0.273,-0.875 -0.693,-1.654 -1.255,-2.335 -0.566,-0.681 -1.256,-1.226 -2.074,-1.635 -0.817,-0.409 -1.752,-0.615 -2.804,-0.615 -1.05,0 -1.995,0.206 -2.833,0.615 -0.836,0.409 -1.527,0.954 -2.072,1.635 -0.547,0.681 -0.963,1.46 -1.256,2.335 -0.292,0.878 -0.438,1.784 -0.438,2.716 0,0.934 0.146,1.84 0.438,2.718 0.293,0.874 0.709,1.663 1.256,2.364 0.545,0.7 1.236,1.255 2.072,1.663 0.838,0.409 1.784,0.615 2.833,0.615"
       clip-path="url(#SVGID_2_)" /><path
       style="fill:#453760"
       id="path22"
       d="m 299.289,126.165 c 0,-2.022 0.36,-3.92 1.08,-5.694 0.719,-1.772 1.722,-3.318 3.007,-4.642 1.285,-1.325 2.833,-2.364 4.644,-3.124 1.811,-0.761 3.805,-1.141 5.985,-1.141 2.18,0 4.167,0.38 5.958,1.141 1.791,0.76 3.329,1.799 4.614,3.124 1.285,1.324 2.286,2.87 3.007,4.642 0.721,1.774 1.08,3.672 1.08,5.694 0,2.027 -0.359,3.925 -1.08,5.696 -0.721,1.772 -1.722,3.318 -3.007,4.643 -1.285,1.324 -2.823,2.376 -4.614,3.152 -1.791,0.78 -3.778,1.169 -5.958,1.169 -2.18,0 -4.174,-0.389 -5.985,-1.169 -1.811,-0.776 -3.359,-1.828 -4.644,-3.152 -1.285,-1.325 -2.288,-2.871 -3.007,-4.643 -0.72,-1.771 -1.08,-3.669 -1.08,-5.696 m 14.716,7.359 c 1.052,0 1.987,-0.206 2.804,-0.615 0.818,-0.408 1.508,-0.963 2.074,-1.663 0.562,-0.701 0.982,-1.49 1.255,-2.364 0.272,-0.878 0.409,-1.784 0.409,-2.718 0,-0.932 -0.137,-1.838 -0.409,-2.716 -0.273,-0.875 -0.693,-1.654 -1.255,-2.335 -0.566,-0.681 -1.256,-1.226 -2.074,-1.635 -0.817,-0.409 -1.752,-0.615 -2.804,-0.615 -1.05,0 -1.995,0.206 -2.833,0.615 -0.836,0.409 -1.527,0.954 -2.072,1.635 -0.546,0.681 -0.963,1.46 -1.256,2.335 -0.292,0.878 -0.437,1.784 -0.437,2.716 0,0.934 0.145,1.84 0.437,2.718 0.293,0.874 0.71,1.663 1.256,2.364 0.545,0.7 1.236,1.255 2.072,1.663 0.838,0.41 1.783,0.615 2.833,0.615"
       clip-path="url(#SVGID_2_)" /><path
       style="fill:#453760"
       id="path24"
       d="m 341.688,119.099 h -4.439 v -6.6 h 4.439 v -1.4 c 0,-1.946 0.321,-3.622 0.963,-5.022 0.643,-1.401 1.489,-2.561 2.541,-3.477 1.051,-0.912 2.248,-1.597 3.592,-2.043 1.343,-0.447 2.715,-0.672 4.117,-0.672 1.478,0 2.979,0.215 4.496,0.643 1.52,0.428 2.901,1.166 4.148,2.218 -0.585,0.897 -1.179,1.781 -1.782,2.659 -0.604,0.874 -1.198,1.761 -1.781,2.658 -0.585,-0.431 -1.226,-0.76 -1.928,-0.995 -0.7,-0.235 -1.421,-0.348 -2.161,-0.348 -1.167,0 -2.102,0.37 -2.803,1.108 -0.701,0.739 -1.051,1.791 -1.051,3.153 v 1.518 h 6.482 v 6.6 h -6.482 v 20.792 h -8.351 z"
       clip-path="url(#SVGID_2_)" /><path
       style="fill:#453760"
       id="path30"
       d="m 417.845,136.269 c -1.131,1.248 -2.62,2.316 -4.469,3.212 -1.849,0.897 -4.04,1.344 -6.57,1.344 -2.22,0 -4.233,-0.361 -6.044,-1.08 -1.811,-0.72 -3.358,-1.733 -4.644,-3.039 -1.284,-1.302 -2.287,-2.852 -3.006,-4.642 -0.721,-1.79 -1.081,-3.758 -1.081,-5.899 0,-2.022 0.369,-3.92 1.109,-5.694 0.74,-1.772 1.762,-3.318 3.066,-4.642 1.305,-1.325 2.863,-2.364 4.673,-3.124 1.809,-0.761 3.785,-1.141 5.927,-1.141 2.492,0 4.653,0.412 6.483,1.229 1.829,0.818 3.368,1.908 4.613,3.27 l -5.08,5.488 c -0.623,-0.7 -1.382,-1.321 -2.277,-1.866 -0.897,-0.545 -2.083,-0.821 -3.563,-0.821 -1.014,0 -1.919,0.206 -2.716,0.615 -0.798,0.409 -1.481,0.944 -2.045,1.606 -0.564,0.663 -0.992,1.429 -1.285,2.307 -0.291,0.875 -0.437,1.8 -0.437,2.773 0,0.896 0.146,1.783 0.437,2.658 0.293,0.878 0.721,1.657 1.285,2.335 0.564,0.684 1.247,1.239 2.045,1.667 0.797,0.427 1.702,0.64 2.716,0.64 1.44,0 2.647,-0.282 3.62,-0.846 0.972,-0.564 1.752,-1.176 2.337,-1.838 z"
       clip-path="url(#SVGID_2_)" /><path
       style="fill:#453760"
       id="path32"
       d="m 427.48,100.937 h 8.993 v 7.535 h -8.993 z m 0.292,11.561 h 8.41 v 27.392 h -8.41 z"
       clip-path="url(#SVGID_2_)" /><path
       style="fill:#453760"
       id="path34"
       d="m 448.506,112.498 h 8.059 l 0.233,2.979 c 0.896,-1.087 2.073,-1.965 3.534,-2.627 1.459,-0.663 2.987,-0.992 4.583,-0.992 3.154,0 5.656,0.935 7.505,2.801 1.849,1.869 2.775,4.635 2.775,8.295 v 16.936 h -8.41 v -15.77 c 0,-1.518 -0.381,-2.725 -1.14,-3.618 -0.759,-0.897 -1.82,-1.344 -3.183,-1.344 -0.935,0 -1.752,0.165 -2.452,0.495 -0.702,0.332 -1.285,0.769 -1.753,1.314 -0.467,0.546 -0.817,1.179 -1.052,1.898 -0.232,0.723 -0.35,1.489 -0.35,2.307 v 14.718 h -8.351 v -27.392 z"
       clip-path="url(#SVGID_2_)" /><path
       style="fill:#453760"
       id="path36"
       d="m 502.994,137.32 c -0.936,1.09 -2.113,1.926 -3.532,2.513 -1.423,0.583 -3.009,0.874 -4.761,0.874 -0.973,0 -1.996,-0.136 -3.065,-0.408 -1.071,-0.273 -2.064,-0.729 -2.979,-1.372 -0.916,-0.644 -1.675,-1.509 -2.278,-2.599 -0.604,-1.089 -0.905,-2.452 -0.905,-4.09 0,-1.594 0.32,-3.017 0.964,-4.262 0.642,-1.245 1.527,-2.288 2.657,-3.124 1.128,-0.837 2.461,-1.47 4,-1.898 1.538,-0.428 3.203,-0.643 4.993,-0.643 0.973,0 1.957,0.019 2.95,0.057 0.993,0.041 1.644,0.098 1.956,0.177 v -0.586 c 0,-0.7 -0.146,-1.293 -0.438,-1.781 -0.291,-0.484 -0.682,-0.893 -1.168,-1.226 -0.487,-0.329 -1.042,-0.564 -1.665,-0.7 -0.623,-0.137 -1.284,-0.206 -1.984,-0.206 -1.87,0 -3.418,0.235 -4.644,0.703 -1.227,0.466 -2.269,0.992 -3.124,1.575 l -3.446,-5.139 c 0.585,-0.428 1.245,-0.856 1.987,-1.283 0.738,-0.428 1.614,-0.818 2.626,-1.17 1.013,-0.348 2.151,-0.63 3.418,-0.846 1.264,-0.215 2.715,-0.323 4.35,-0.323 4.167,0 7.242,1.122 9.229,3.359 1.985,2.24 2.979,5.247 2.979,9.024 v 15.944 h -7.885 z m 0,-9.518 c -0.194,-0.042 -0.565,-0.089 -1.11,-0.149 -0.545,-0.057 -1.167,-0.086 -1.868,-0.086 -2.336,0 -3.992,0.33 -4.965,0.992 -0.973,0.662 -1.459,1.597 -1.459,2.804 0,2.259 1.362,3.387 4.088,3.387 0.662,0 1.314,-0.107 1.956,-0.32 0.644,-0.215 1.207,-0.516 1.693,-0.906 0.486,-0.389 0.886,-0.878 1.198,-1.461 0.311,-0.583 0.467,-1.264 0.467,-2.043 z"
       clip-path="url(#SVGID_2_)" /><path
       clip-path="url(#SVGID_2_)"
       d="m 427.48,100.937 h 8.993 v 7.535 h -8.993 z m 0.292,11.561 h 8.41 v 27.392 h -8.41 z"
       id="path991"
       style="fill:#453760"
       transform="translate(-55.189,1.0986328e-6)" /></g></svg>